<svg width="64" height="64" viewBox="0 0 64 64" xmlns="http://www.w3.org/2000/svg">
  <defs>
    <linearGradient id="primaryGradient" x1="0%" y1="0%" x2="100%" y2="100%">
      <stop offset="0%" style="stop-color:#667eea"/>
      <stop offset="100%" style="stop-color:#764ba2"/>
    </linearGradient>
    <linearGradient id="accentGradient" x1="0%" y1="0%" x2="100%" y2="0%">
      <stop offset="0%" style="stop-color:#f093fb"/>
      <stop offset="100%" style="stop-color:#f5576c"/>
    </linearGradient>
  </defs>
  
  <!-- Blog Document Icon -->
  <g transform="translate(10, 8)">
    <!-- Document background -->
    <rect x="4" y="4" width="30" height="38" rx="3" fill="url(#primaryGradient)" opacity="0.1"/>
    <rect x="6" y="6" width="26" height="34" rx="2" fill="white" stroke="url(#primaryGradient)" stroke-width="2"/>
    
    <!-- Document fold -->
    <path d="M26 6 L26 12 L32 12 Z" fill="url(#primaryGradient)" opacity="0.3"/>
    <path d="M26 6 L26 12 L32 12" stroke="url(#primaryGradient)" stroke-width="1" fill="none"/>
    
    <!-- Blog content lines -->
    <rect x="10" y="16" width="14" height="2" rx="1" fill="url(#primaryGradient)" opacity="0.7"/>
    <rect x="10" y="20" width="18" height="2" rx="1" fill="url(#primaryGradient)" opacity="0.5"/>
    <rect x="10" y="24" width="12" height="2" rx="1" fill="url(#primaryGradient)" opacity="0.6"/>
    <rect x="10" y="28" width="16" height="2" rx="1" fill="url(#primaryGradient)" opacity="0.4"/>
    <rect x="10" y="32" width="10" height="2" rx="1" fill="url(#primaryGradient)" opacity="0.5"/>
    
    <!-- AI magic sparkles around document -->
    <g opacity="0.8">
      <path d="M2 20 L3 22 L5 23 L3 24 L2 26 L1 24 L-1 23 L1 22 Z" fill="url(#accentGradient)"/>
      <path d="M36 25 L37 27 L39 28 L37 29 L36 31 L35 29 L33 28 L35 27 Z" fill="url(#accentGradient)"/>
      <path d="M38 13 L38.5 14 L39.5 14.5 L38.5 15 L38 16 L37.5 15 L36.5 14.5 L37.5 14 Z" fill="url(#accentGradient)"/>
    </g>
  </g>
</svg>